<svg width="192" height="50" viewBox="0 0 192 50" fill="none" xmlns="http://www.w3.org/2000/svg">
<path fill-rule="evenodd" clip-rule="evenodd" d="M0 5.23108C0 2.34204 2.34204 0 5.23108 0H42.3993C45.2883 0 47.6304 2.34204 47.6304 5.23108V42.3993C47.6304 45.2883 45.2883 47.6304 42.3993 47.6304H5.23108C2.34204 47.6304 0 45.2883 0 42.3993V5.23108ZM18.3188 14.589C17.5504 15.7391 17.1188 17.0791 17.0699 18.458V21.475H24.228V20.3736H24.2415C24.3119 18.9317 24.6584 17.5148 25.2639 16.2005C25.9464 14.7193 26.9417 13.4035 28.1814 12.3438C28.2019 12.3263 28.2225 12.3088 28.2431 12.2915C27.5371 11.8809 26.7644 11.5871 25.9548 11.4261C24.5119 11.1391 23.0163 11.2864 21.6571 11.8494C20.2979 12.4124 19.1362 13.3658 18.3188 14.589ZM28.7317 12.6017C28.667 12.6545 28.6028 12.708 28.5392 12.7624C27.36 13.7704 26.4132 15.022 25.764 16.431C25.1918 17.673 24.8628 19.0113 24.7928 20.3736H24.7929C24.8629 19.0113 25.1919 17.673 25.7641 16.431C26.4133 15.022 27.3601 13.7704 28.5393 12.7624C28.6029 12.708 28.6671 12.6545 28.7318 12.6017C28.7318 12.6017 28.7318 12.6017 28.7317 12.6017ZM31.8045 10.8487C31.8045 10.8487 31.8045 10.8487 31.8045 10.8487C31.8046 10.8486 31.8048 10.8486 31.8049 10.8485C31.8049 10.8485 31.805 10.8485 31.805 10.8485C31.8048 10.8486 31.8047 10.8486 31.8045 10.8487ZM32.3953 10.6503C32.4616 10.6302 32.5282 10.6107 32.595 10.5918C32.6644 10.5721 32.734 10.5532 32.8037 10.535C32.7339 10.5532 32.6644 10.5721 32.5949 10.5918C32.5281 10.6106 32.4616 10.6302 32.3952 10.6503C32.3952 10.6503 32.3952 10.6503 32.3953 10.6503ZM31.9305 10.2207C30.4471 8.92469 28.6465 8.03633 26.7058 7.65031C24.5162 7.21476 22.2465 7.4383 20.1839 8.29267C18.1212 9.14704 16.3583 10.5939 15.1179 12.4502C13.9797 14.1536 13.3285 16.1316 13.2289 18.171H13.2154V28.9085H9.91146V32.7629H13.2154V33.8462C13.1662 35.2706 12.7086 36.6529 11.8945 37.8271C11.7892 37.979 11.6785 38.1265 11.5629 38.2694H12.256H16.0536C16.6444 36.9727 16.9863 35.5715 17.0562 34.1395H17.0699V32.7629H24.228V36.3422H24.2479C24.1824 37.2368 23.9577 38.1136 23.5833 38.9295C23.3779 39.3771 23.1297 39.8014 22.8431 40.1967H26.5985C27.139 38.9797 27.4503 37.6725 27.5177 36.3422H27.5179C27.4505 37.6725 27.1392 38.9797 26.5987 40.1967H27.1984C27.7106 38.9733 28.0053 37.6683 28.0692 36.3422H28.0825V32.7629H28.0826V28.9085H28.0825V25.3294H31.9373V21.475H28.0825V20.6588C28.1176 19.6751 28.3477 18.7072 28.7604 17.8115C29.2101 16.8355 29.866 15.9684 30.6829 15.2701C31.4998 14.5718 32.4583 14.0588 33.4925 13.7664C34.5266 13.474 35.6119 13.4092 36.6735 13.5764L37.2174 13.6621L37.8164 9.85925L37.2725 9.77358C35.6614 9.51983 34.0145 9.61819 32.4451 10.0619C32.2721 10.1108 32.1006 10.1638 31.9305 10.2207ZM31.3363 10.4385C29.9712 9.31244 28.3444 8.53767 26.5984 8.19037C24.5155 7.77606 22.3566 7.9887 20.3946 8.8014C20.0675 8.93686 19.7484 9.088 19.4382 9.25398C19.7483 9.0881 20.0673 8.93705 20.3942 8.80165C22.3562 7.98895 24.5152 7.77631 26.5981 8.19062C28.344 8.53791 29.9708 9.31266 31.3359 10.4387C31.336 10.4386 31.3361 10.4386 31.3363 10.4385ZM27.5319 21.475V21.4749H27.5317V21.475H27.5319ZM27.5317 35.2409H27.5319V32.7629H27.5317V35.2409ZM27.5319 32.2123V32.2123H27.5317V32.2123H27.5319ZM27.5319 28.9085V25.3294H27.5317V28.9085H27.5319ZM27.5319 24.7788H27.5317V24.7788H27.5319V24.7788ZM28.0825 24.7788V24.7788H31.3866V24.7788H28.0825ZM24.228 32.2123V32.2123H17.0699V32.2123H24.228ZM24.228 25.3294V28.9085H17.0699V25.3294H24.228ZM24.228 24.7788V24.7788H17.0699V24.7788H24.228ZM12.256 38.2694C12.2868 38.2268 12.3171 38.184 12.3471 38.1408C13.1691 36.9552 13.6527 35.572 13.7516 34.1395H13.7515C13.6526 35.5721 13.169 36.9552 12.347 38.1409C12.3171 38.184 12.2867 38.2269 12.256 38.2694ZM17.861 14.2831C17.0854 15.4438 16.6294 16.7846 16.5336 18.171H16.5333C16.6291 16.7847 17.0851 15.444 17.8607 14.2833C18.2574 13.6896 18.7296 13.1551 19.2629 12.6917C18.7298 13.155 18.2576 13.6895 17.861 14.2831ZM13.7661 19.2722V21.475H13.7661V19.2722H13.7661ZM13.7661 25.3294H13.7661V28.9085H13.7661V25.3294ZM10.4621 32.2123H13.2154V32.2123H10.4621V29.4591H10.4621V32.2123ZM13.7661 32.2123V32.2123H13.7661V32.2123H13.7661ZM13.7661 33.0384V32.7629H13.7661V33.0384H13.7661ZM36.7573 13.0322L36.7576 13.0322C36.7113 13.025 36.6651 13.0181 36.6188 13.0117C36.665 13.0181 36.7112 13.025 36.7573 13.0322Z" fill="#0EF0C3"/>
<path d="M60.2435 39.3232L65.0358 10.4563H82.9367L82.3165 14.2057H68.771L67.3051 23.001H79.5679L78.9477 26.7363H66.6849L64.5989 39.3232H60.2435ZM93.8389 30.3446L95.9531 17.6731H100.182L96.5733 39.3232H92.4293L93.0636 35.5739H92.8381C92.1615 36.7297 91.2031 37.6929 89.9627 38.4634C88.7317 39.2246 87.3034 39.6051 85.6778 39.6051C84.287 39.6051 83.1077 39.2998 82.1399 38.689C81.1814 38.0688 80.5001 37.1526 80.0961 35.9404C79.692 34.7282 79.6356 33.2294 79.9269 31.444L82.2385 17.6731H86.453L84.2401 30.9366C84.0051 32.4119 84.226 33.5865 84.9025 34.4604C85.5791 35.3343 86.5658 35.7713 87.8625 35.7713C88.6518 35.7713 89.4694 35.5739 90.3151 35.1793C91.1608 34.7846 91.9078 34.1879 92.5562 33.3892C93.214 32.5905 93.6415 31.5756 93.8389 30.3446ZM105.404 26.4684L103.289 39.3232H99.0748L102.683 17.6731H106.728L106.136 21.1969H106.404C107.09 20.0411 108.025 19.1202 109.209 18.4342C110.403 17.7388 111.812 17.3912 113.438 17.3912C114.904 17.3912 116.135 17.7013 117.131 18.3214C118.136 18.9322 118.846 19.8437 119.259 21.0559C119.682 22.2681 119.748 23.7669 119.456 25.5523L117.145 39.3232H112.93L115.143 26.0597C115.397 24.4904 115.19 23.2641 114.523 22.3809C113.865 21.4882 112.818 21.0418 111.38 21.0418C110.403 21.0418 109.496 21.2532 108.66 21.6761C107.833 22.0989 107.133 22.7191 106.559 23.5367C105.996 24.3448 105.61 25.322 105.404 26.4684ZM127.684 39.7461C125.927 39.7461 124.437 39.2998 123.216 38.4071C122.004 37.505 121.144 36.2223 120.636 34.5591C120.138 32.8864 120.082 30.8802 120.467 28.5404C120.862 26.2006 121.59 24.1991 122.652 22.5359C123.714 20.8727 125.001 19.5994 126.514 18.7161C128.027 17.8328 129.657 17.3912 131.405 17.3912C132.749 17.3912 133.792 17.6167 134.534 18.0677C135.286 18.5094 135.84 19.0262 136.198 19.6182C136.555 20.2102 136.822 20.7317 137.001 21.1828H137.241L139.031 10.4563H143.245L138.453 39.3232H134.337L134.915 35.9545H134.562C134.234 36.4149 133.778 36.9412 133.195 37.5332C132.622 38.1252 131.889 38.642 130.996 39.0836C130.104 39.5253 129 39.7461 127.684 39.7461ZM129.108 36.1518C130.32 36.1518 131.405 35.8323 132.364 35.1934C133.331 34.545 134.135 33.6476 134.774 32.5012C135.422 31.3548 135.873 30.0204 136.127 28.4982C136.381 26.9947 136.376 25.6791 136.113 24.5515C135.85 23.4239 135.342 22.5453 134.591 21.9157C133.839 21.2861 132.848 20.9713 131.617 20.9713C130.348 20.9713 129.244 21.3002 128.304 21.958C127.365 22.6158 126.594 23.5132 125.993 24.6502C125.401 25.7872 124.987 27.0698 124.752 28.4982C124.508 29.9453 124.499 31.2467 124.724 32.4025C124.95 33.5583 125.424 34.4745 126.148 35.1511C126.871 35.8182 127.858 36.1518 129.108 36.1518ZM141.617 39.3232L146.409 10.4563H164.31L163.69 14.2057H150.144L148.678 23.001H160.941L160.321 26.7363H148.058L145.972 39.3232H141.617ZM170.367 10.4563L165.575 39.3232H161.36L166.152 10.4563H170.367ZM177.287 39.7602C175.229 39.7602 173.51 39.2904 172.128 38.3507C170.747 37.4016 169.774 36.0767 169.211 34.3758C168.656 32.6656 168.562 30.6782 168.929 28.4136C169.286 26.1959 170.005 24.2602 171.085 22.6064C172.175 20.9525 173.538 19.6699 175.173 18.7584C176.817 17.8469 178.645 17.3912 180.656 17.3912C182.714 17.3912 184.429 17.8657 185.801 18.8148C187.182 19.7638 188.155 21.0935 188.718 22.8037C189.282 24.5139 189.381 26.506 189.014 28.7801C188.657 30.9789 187.929 32.9052 186.83 34.5591C185.74 36.2035 184.377 37.4815 182.742 38.393C181.107 39.3044 179.289 39.7602 177.287 39.7602ZM177.527 36.2223C178.88 36.2223 180.059 35.8652 181.065 35.1511C182.08 34.4369 182.906 33.4878 183.545 32.3038C184.184 31.1199 184.621 29.8231 184.856 28.4136C185.072 27.051 185.068 25.806 184.842 24.6784C184.626 23.5414 184.156 22.6299 183.433 21.9439C182.709 21.2579 181.704 20.915 180.416 20.915C179.063 20.915 177.874 21.2767 176.85 22.0003C175.835 22.7144 175.008 23.6682 174.369 24.8616C173.74 26.055 173.312 27.3564 173.087 28.766C172.871 30.1191 172.871 31.3642 173.087 32.5012C173.303 33.6288 173.773 34.5309 174.496 35.2075C175.22 35.884 176.23 36.2223 177.527 36.2223Z" fill="#000C4B"/>
</svg>
