<svg width="147" height="119" viewBox="0 0 147 119" fill="none" xmlns="http://www.w3.org/2000/svg">
<path d="M52.0224 0L67.1123 16.1551L47.0516 35.3281C43.9744 38.2869 40.5422 41.7191 36.7549 45.6248C32.9677 49.5304 29.713 53.9094 26.9909 58.7619C24.2688 63.496 23.0261 68.6443 23.2628 74.2068H15.274C15.9841 69.8278 17.7594 65.9222 20.5999 62.49C23.4403 58.9394 27.9377 57.1641 34.092 57.1641C39.0628 57.1641 43.8561 58.466 48.4718 61.0697C53.0875 63.6735 56.8156 67.2832 59.6561 71.899C62.4965 76.5147 63.9168 81.7222 63.9168 87.5214C63.9168 96.0428 60.8396 103.262 54.6853 109.18C48.6493 115.098 41.1931 118.056 32.3167 118.056C23.677 118.056 16.1616 114.979 9.77063 108.825C3.37961 102.552 0.124927 93.4982 0.00657512 81.663C-0.111777 73.1417 1.36763 65.1529 4.44478 57.6967C7.64029 50.2405 11.5459 43.4944 16.1616 37.4585C20.8957 31.4225 25.5706 26.215 30.1864 21.836L52.0224 0ZM131.91 0L147 16.1551L126.939 35.3281C123.862 38.2869 120.43 41.7191 116.643 45.6248C112.974 49.5304 109.778 53.9094 107.056 58.7619C104.334 63.496 103.032 68.6443 103.151 74.2068H95.1617C95.8718 69.8278 97.6471 65.9222 100.488 62.49C103.328 58.9394 107.825 57.1641 113.98 57.1641C119.069 57.1641 123.862 58.466 128.36 61.0697C132.975 63.6735 136.703 67.2832 139.544 71.899C142.384 76.5147 143.804 81.7222 143.804 87.5214C143.804 96.0428 140.727 103.262 134.573 109.18C128.537 115.098 121.081 118.056 112.204 118.056C103.565 118.056 96.0494 114.979 89.6584 108.825C83.2673 102.552 80.0127 93.4982 79.8943 81.663C79.776 73.1417 81.2554 65.1529 84.3325 57.6967C87.528 50.2405 91.4336 43.4944 96.0494 37.4585C100.783 31.4225 105.458 26.215 110.074 21.836L131.91 0Z" fill="#0EF0C3"/>
</svg>
