<svg width="48" height="48" viewBox="0 0 48 48" fill="none" xmlns="http://www.w3.org/2000/svg">
<path fill-rule="evenodd" clip-rule="evenodd" d="M0 5.23108C0 2.34204 2.34204 0 5.23108 0H42.3993C45.2883 0 47.6304 2.34204 47.6304 5.23108V42.3993C47.6304 45.2883 45.2883 47.6304 42.3993 47.6304H5.23108C2.34204 47.6304 0 45.2883 0 42.3993V5.23108ZM18.3188 14.589C17.5504 15.7391 17.1188 17.0791 17.0699 18.458V21.475H24.228V20.3736H24.2415C24.3119 18.9317 24.6584 17.5148 25.2639 16.2005C25.9464 14.7193 26.9417 13.4035 28.1814 12.3438C28.2019 12.3263 28.2225 12.3088 28.2431 12.2915C27.5371 11.8809 26.7644 11.5871 25.9548 11.4261C24.5119 11.1391 23.0163 11.2864 21.6571 11.8494C20.2979 12.4124 19.1362 13.3658 18.3188 14.589ZM28.7317 12.6017C28.667 12.6545 28.6028 12.708 28.5392 12.7624C27.36 13.7704 26.4132 15.022 25.764 16.431C25.1918 17.673 24.8628 19.0113 24.7928 20.3736H24.7929C24.8629 19.0113 25.1919 17.673 25.7641 16.431C26.4133 15.022 27.3601 13.7704 28.5393 12.7624C28.6029 12.708 28.6671 12.6545 28.7318 12.6017C28.7318 12.6017 28.7318 12.6017 28.7317 12.6017ZM31.8045 10.8487C31.8045 10.8487 31.8045 10.8487 31.8045 10.8487C31.8046 10.8486 31.8048 10.8486 31.8049 10.8485C31.8049 10.8485 31.805 10.8485 31.805 10.8485C31.8048 10.8486 31.8047 10.8486 31.8045 10.8487ZM32.3953 10.6503C32.4616 10.6302 32.5282 10.6107 32.595 10.5918C32.6644 10.5721 32.734 10.5532 32.8037 10.535C32.7339 10.5532 32.6644 10.5721 32.5949 10.5918C32.5281 10.6106 32.4616 10.6302 32.3952 10.6503C32.3952 10.6503 32.3952 10.6503 32.3953 10.6503ZM31.9305 10.2207C30.4471 8.92469 28.6465 8.03633 26.7058 7.65031C24.5162 7.21476 22.2465 7.4383 20.1839 8.29267C18.1212 9.14704 16.3583 10.5939 15.1179 12.4502C13.9797 14.1536 13.3285 16.1316 13.2289 18.171H13.2154V28.9085H9.91146V32.7629H13.2154V33.8462C13.1662 35.2706 12.7086 36.6529 11.8945 37.8271C11.7892 37.979 11.6785 38.1265 11.5629 38.2694H12.256H16.0536C16.6444 36.9727 16.9863 35.5715 17.0562 34.1395H17.0699V32.7629H24.228V36.3422H24.2479C24.1824 37.2368 23.9577 38.1136 23.5833 38.9295C23.3779 39.3771 23.1297 39.8014 22.8431 40.1967H26.5985C27.139 38.9797 27.4503 37.6725 27.5177 36.3422H27.5179C27.4505 37.6725 27.1392 38.9797 26.5987 40.1967H27.1984C27.7106 38.9733 28.0053 37.6683 28.0692 36.3422H28.0825V32.7629H28.0826V28.9085H28.0825V25.3294H31.9373V21.475H28.0825V20.6588C28.1176 19.6751 28.3477 18.7072 28.7604 17.8115C29.2101 16.8355 29.866 15.9684 30.6829 15.2701C31.4998 14.5718 32.4583 14.0588 33.4925 13.7664C34.5266 13.474 35.6119 13.4092 36.6735 13.5764L37.2174 13.6621L37.8164 9.85925L37.2725 9.77358C35.6614 9.51983 34.0145 9.61819 32.4451 10.0619C32.2721 10.1108 32.1006 10.1638 31.9305 10.2207ZM31.3363 10.4385C29.9712 9.31244 28.3444 8.53767 26.5984 8.19037C24.5155 7.77606 22.3566 7.9887 20.3946 8.8014C20.0675 8.93686 19.7484 9.088 19.4382 9.25398C19.7483 9.0881 20.0673 8.93705 20.3942 8.80165C22.3562 7.98895 24.5152 7.77631 26.5981 8.19062C28.344 8.53791 29.9708 9.31266 31.3359 10.4387C31.336 10.4386 31.3361 10.4386 31.3363 10.4385ZM27.5319 21.475V21.4749H27.5317V21.475H27.5319ZM27.5317 35.2409H27.5319V32.7629H27.5317V35.2409ZM27.5319 32.2123V32.2123H27.5317V32.2123H27.5319ZM27.5319 28.9085V25.3294H27.5317V28.9085H27.5319ZM27.5319 24.7788H27.5317V24.7788H27.5319V24.7788ZM28.0825 24.7788V24.7788H31.3866V24.7788H28.0825ZM24.228 32.2123V32.2123H17.0699V32.2123H24.228ZM24.228 25.3294V28.9085H17.0699V25.3294H24.228ZM24.228 24.7788V24.7788H17.0699V24.7788H24.228ZM12.256 38.2694C12.2868 38.2268 12.3171 38.184 12.3471 38.1408C13.1691 36.9552 13.6527 35.572 13.7516 34.1395H13.7515C13.6526 35.5721 13.169 36.9552 12.347 38.1409C12.3171 38.184 12.2867 38.2269 12.256 38.2694ZM17.861 14.2831C17.0854 15.4438 16.6294 16.7846 16.5336 18.171H16.5333C16.6291 16.7847 17.0851 15.444 17.8607 14.2833C18.2574 13.6896 18.7296 13.1551 19.2629 12.6917C18.7298 13.155 18.2576 13.6895 17.861 14.2831ZM13.7661 19.2722V21.475H13.7661V19.2722H13.7661ZM13.7661 25.3294H13.7661V28.9085H13.7661V25.3294ZM10.4621 32.2123H13.2154V32.2123H10.4621V29.4591H10.4621V32.2123ZM13.7661 32.2123V32.2123H13.7661V32.2123H13.7661ZM13.7661 33.0384V32.7629H13.7661V33.0384H13.7661ZM36.7573 13.0322L36.7576 13.0322C36.7113 13.025 36.6651 13.0181 36.6188 13.0117C36.665 13.0181 36.7112 13.025 36.7573 13.0322Z" fill="#0EF0C3"/>
</svg>
